<?xml version="1.0" encoding="utf-8"?>
<!-- Generator: Adobe Illustrator 24.0.0, SVG Export Plug-In . SVG Version: 6.00 Build 0)  -->
<svg version="1.1" id="Layer_1" xmlns="http://www.w3.org/2000/svg" xmlns:xlink="http://www.w3.org/1999/xlink" x="0px" y="0px"
	 viewBox="0 0 512 512" style="enable-background:new 0 0 512 512;" xml:space="preserve">
<style type="text/css">
	.st0{fill:#FFFFFF;}
</style>
<g>
	<path d="M410.5,482.5h-309c-39.7,0-72-32.3-72-72v-309c0-39.7,32.3-72,72-72h309c39.7,0,72,32.3,72,72v309
		C482.5,450.2,450.2,482.5,410.5,482.5z M101.5,49.5c-28.7,0-52,23.3-52,52v309c0,28.7,23.3,52,52,52h309c28.7,0,52-23.3,52-52v-309
		c0-28.7-23.3-52-52-52H101.5z" style='fill:#fff'/>
</g>
<g>
	<path d="M109.5,255.6c0-92,63-154.2,149.9-154.2c63,0,116.7,39.4,129,94.1L316,210.8c-6.7-22-30.6-38.1-57.1-38.1
		c-41,0-70.9,34-70.9,82.9c0,48.9,31,84.1,73.8,84.1c33.9,0,61.9-23.2,64.1-54.7l-90.6-0.4v-51.4h165.9
		c9.7,105.3-50.3,178.2-142.1,178.2C172.5,411.4,109.5,347.6,109.5,255.6z" style='fill:#fff'/>
</g>
</svg>
