<?xml version="1.0" encoding="utf-8"?>
<!-- Generator: Adobe Illustrator 27.0.1, SVG Export Plug-In . SVG Version: 6.00 Build 0)  -->
<svg version="1.1" id="Layer_1" xmlns="http://www.w3.org/2000/svg" xmlns:xlink="http://www.w3.org/1999/xlink" x="0px" y="0px"
	 viewBox="0 0 1029.2 315.1" style="enable-background:new 0 0 1029.2 315.1;" xml:space="preserve">
<style type="text/css">
	.st0{fill:#FDD600;}
	.st1{enable-background:new    ;}
	.st2{fill:#352A52;}
</style>
<g>
	<g>
		<g>
			<polygon class="st0" points="147,254.6 19,179.7 17.6,128.8 84.6,84.2 152.2,36.2 186.9,85.1 118.2,133.9 90.8,152.2 
				177.3,202.9 			"/>
		</g>
		<g>
			<rect x="144.7" y="138" class="st0" width="60" height="115.6"/>
		</g>
	</g>
	<g class="st1">
		<path class="st2" d="M309.3,284c-9.1-1.7-16.9-3.9-23.4-6.7v-34.2c14.7,6.3,31.6,9.5,50.4,9.5c13.6,0,23.5-2.8,29.6-8.4
			c6.1-5.6,9.1-13.8,9.1-24.6v-8.1c-5.4,4.7-12.1,8.3-20,10.9c-7.9,2.6-16.4,3.9-25.4,3.9c-14.2,0-26.7-3-37.5-9
			c-10.8-6-19.3-14.4-25.4-25.2c-6.1-10.8-9.1-23.2-9.1-37.3c0-14.2,3-26.7,9-37.5c6-10.8,14.4-19.2,25.2-25.1
			c10.8-5.9,23.2-8.8,37.3-8.8c19.2,0,35.1,5.9,47.6,17.6V87.7h47.6v125.2c0,23.3-7.1,41.5-21.4,54.3
			c-14.3,12.9-36.5,19.3-66.5,19.3C327.4,286.5,318.4,285.7,309.3,284z M362.4,182.3c6-3.9,10.2-9.1,12.6-15.7v-23.5
			c-2.6-6.5-6.9-11.7-12.9-15.5c-6-3.8-12.7-5.7-20.2-5.7c-10.1,0-18.2,2.9-24.4,8.8c-6.2,5.9-9.2,13.9-9.2,23.9
			c0,10.3,3.1,18.4,9.2,24.5c6.2,6.1,14.3,9.1,24.4,9.1C349.6,188.2,356.4,186.3,362.4,182.3z"/>
		<path class="st2" d="M476.1,217.2c-12.5-6.1-22.2-14.5-29-25.2c-6.8-10.7-10.2-23.1-10.2-37.1c0-14,3.4-26.4,10.2-37.1
			c6.8-10.7,16.5-19.1,29-25.2c12.5-6.1,27.1-9.1,43.7-9.1c16.6,0,31.2,3,43.7,9.1c12.5,6.1,22.2,14.5,29,25.2
			c6.8,10.7,10.2,23.1,10.2,37.1c0,14-3.4,26.4-10.2,37.1c-6.8,10.7-16.5,19.1-29,25.2c-12.5,6.1-27.1,9.1-43.7,9.1
			C503.2,226.3,488.7,223.3,476.1,217.2z M543.5,179.1c5.9-5.9,8.8-14,8.8-24.2c0-10.3-2.9-18.3-8.8-24.2
			c-5.9-5.9-13.8-8.8-23.7-8.8c-9.9,0-17.8,2.9-23.7,8.8c-5.9,5.9-8.8,14-8.8,24.2c0,10.3,2.9,18.3,8.8,24.2
			c5.9,5.9,13.8,8.8,23.7,8.8C529.7,187.9,537.6,185,543.5,179.1z"/>
		<path class="st2" d="M622.4,15.1h49.3v126.6l44.3-54.1h56.6l-53.5,65l60.8,69.5h-56.6L671.7,163v59.1h-49.3V15.1z"/>
		<path class="st2" d="M804.9,210.9c-9.2-10.3-13.9-23.8-13.9-40.6V87.7h49.3v77c0,15.5,7,23.2,21,23.2c6.3,0,12.1-1.5,17.4-4.5
			c5.2-3,9.5-7.4,12.9-13.2V87.7h49.3v134.5h-47.6v-14.6c-5.8,6.2-12.8,10.8-21,14c-8.2,3.2-16.8,4.8-25.8,4.8
			C828,226.3,814.1,221.2,804.9,210.9z"/>
		<path class="st2" d="M966.1,15.1h49.3v207h-49.3V15.1z"/>
	</g>
</g>
</svg>
