<?xml version="1.0" encoding="utf-8"?>
<!-- Generator: Adobe Illustrator 27.0.1, SVG Export Plug-In . SVG Version: 6.00 Build 0)  -->
<svg version="1.1" id="Layer_1" xmlns="http://www.w3.org/2000/svg" xmlns:xlink="http://www.w3.org/1999/xlink" x="0px" y="0px"
	 viewBox="0 0 1324.7 459.3" style="enable-background:new 0 0 1324.7 459.3;" xml:space="preserve">
<style type="text/css">
	.st0{fill:#FDD600;}
	.st1{fill:#352A52;}
</style>
<g>
	<polygon class="st0" points="317.9,417.6 63.4,278.8 61.2,201.1 315.7,43 363.2,119.5 174.3,236.8 294.5,302.3 294.5,233.8 
		384.5,233.8 384.5,378.1 	"/>
</g>
<g>
	<path class="st1" d="M489.1,372.3c-9.7-1.8-18.1-4.2-25-7.2v-36.6c15.8,6.8,33.8,10.2,54,10.2c14.6,0,25.1-3,31.7-9
		c6.5-6,9.8-14.8,9.8-26.4v-8.7c-5.8,5-13,8.9-21.5,11.7c-8.5,2.8-17.5,4.2-27.2,4.2c-15.2,0-28.6-3.2-40.2-9.6
		c-11.6-6.4-20.7-15.4-27.2-27c-6.5-11.6-9.8-24.9-9.8-39.9c0-15.2,3.2-28.6,9.6-40.2c6.4-11.6,15.4-20.5,27-26.8
		c11.6-6.3,24.9-9.5,39.9-9.5c20.6,0,37.6,6.3,51,18.9V162h51v134.1c0,25-7.7,44.4-23,58.2S550.2,375,518,375
		C508.4,375,498.8,374.1,489.1,372.3z M545.9,263.4c6.4-4.2,10.9-9.8,13.5-16.8v-25.2c-2.8-7-7.4-12.5-13.8-16.7
		c-6.4-4.1-13.6-6.2-21.6-6.2c-10.8,0-19.5,3.2-26.1,9.5c-6.6,6.3-9.9,14.9-9.9,25.7c0,11,3.3,19.8,9.9,26.2
		c6.6,6.5,15.3,9.8,26.1,9.8C532.2,269.7,539.5,267.6,545.9,263.4z"/>
	<path class="st1" d="M667.7,300.8c-13.4-6.5-23.8-15.5-31-27c-7.3-11.5-11-24.8-11-39.8s3.6-28.2,11-39.8c7.3-11.5,17.6-20.5,31-27
		c13.4-6.5,29-9.8,46.8-9.8c17.8,0,33.4,3.3,46.8,9.8c13.4,6.5,23.7,15.5,31.1,27c7.3,11.5,10.9,24.8,10.9,39.8s-3.7,28.3-10.9,39.8
		c-7.3,11.5-17.7,20.5-31.1,27c-13.4,6.5-29,9.8-46.8,9.8C696.7,310.5,681.1,307.3,667.7,300.8z M739.9,260c6.3-6.3,9.4-14.9,9.4-26
		c0-11-3.1-19.7-9.4-26c-6.3-6.3-14.8-9.5-25.4-9.5c-10.6,0-19,3.2-25.3,9.5s-9.5,15-9.5,26c0,11,3.2,19.7,9.5,26s14.7,9.5,25.3,9.5
		C725.1,269.4,733.6,266.3,739.9,260z"/>
	<path class="st1" d="M824.3,84.3h52.8v135.6l47.4-57.9h60.6l-57.3,69.6l65.1,74.4h-60.6l-55.2-63.3V306h-52.8V84.3z"/>
	<path class="st1" d="M1019.8,294c-9.9-11-14.8-25.5-14.8-43.5V162h52.8v82.5c0,16.6,7.5,24.9,22.5,24.9c6.8,0,13-1.6,18.6-4.8
		c5.6-3.2,10.2-7.9,13.8-14.1V162h52.8v144h-51v-15.6c-6.2,6.6-13.7,11.6-22.5,15c-8.8,3.4-18,5.1-27.6,5.1
		C1044.5,310.5,1029.7,305,1019.8,294z"/>
	<path class="st1" d="M1192.4,84.3h52.8V306h-52.8V84.3z"/>
</g>
</svg>
