<?xml version="1.0" encoding="utf-8"?>
<!-- Generator: Adobe Illustrator 25.0.0, SVG Export Plug-In . SVG Version: 6.00 Build 0)  -->
<svg version="1.1" id="Layer_1" xmlns="http://www.w3.org/2000/svg" xmlns:xlink="http://www.w3.org/1999/xlink" x="0px" y="0px"
	 viewBox="0 0 2613 880" style="enable-background:new 0 0 2613 880;" xml:space="preserve">
<style type="text/css">
	.st0{fill:#00C900;}
	.st1{fill:#00BC00;}
	.st2{fill:#00B700;}
	.st3{fill:#FFFFFF;}
	.st4{fill:#00A600;}
</style>
<g>
	<polygon class="st0" points="91,246.9 91,640.1 431.5,836.7 772,640.1 772,246.9 431.5,50.3 	"/>
</g>
<g>
	<polygon class="st1" points="772.5,246.5 431.5,50.5 91.5,246.5 431.5,441.5 	"/>
</g>
<g>
	<polygon class="st2" points="771.5,640 772,246 431.5,442 431.5,836 	"/>
</g>
<g>
	<polygon class="st0" points="431.5,836 431.5,442 92,246 91.5,640 	"/>
</g>
<g>
	<path class="st3" d="M706,452.8v163.1c0,69.9-36.4,101.6-103.7,101.6c-36,0-71.7-9.4-93.6-27.4l20.2-33.9c16.9,14,44.3,23,70.9,23
		c42.5,0,61.2-19.4,61.2-58.3v-10.1c-15.8,17.3-38.5,25.6-64.5,25.6c-55.1,0-97.2-37.5-97.2-93.3c0-55.8,42.1-92.6,97.2-92.6
		c27,0,50.8,8.6,66.6,27.7v-25.6H706z M661.7,543.2c0-32.4-24.5-54.4-58.3-54.4c-34.2,0-58.7,22-58.7,54.4
		c0,32.8,24.5,55.1,58.7,55.1C637.2,598.3,661.7,576,661.7,543.2z"/>
</g>
<g>
	<path class="st4" d="M921.6,632.1l28.5-63.9c35.4,28.5,91.7,48.7,146.1,48.7c69,0,98.1-24.7,98.1-57.6
		c0-95.5-263.2-32.9-263.2-197.4c0-71.5,56.9-132.2,178.4-132.2c53.1,0,108.8,13.9,147.4,39.2l-25.9,63.9
		c-39.9-23.4-83.5-34.8-122.1-34.8c-68.3,0-96.2,26.6-96.2,60.1c0,94.3,262.5,32.9,262.5,195.5c0,70.8-57.6,131.6-179,131.6
		C1027.2,685.3,958.3,663.8,921.6,632.1z"/>
	<path class="st4" d="M1527,660.6c-19,15.2-47.4,22.8-75.9,22.8c-74,0-116.4-39.2-116.4-113.9V406.9H1279v-63.3h55.7v-77.2h79.1
		v77.2h90.5v63.3h-90.5v160.7c0,32.9,16.4,50.6,46.8,50.6c16.4,0,32.3-4.4,44.3-13.9L1527,660.6z"/>
	<path class="st4" d="M1527.6,510.1c0-101.2,75.9-172.7,179.7-172.7c105,0,180.3,71.5,180.3,172.7c0,101.2-75.3,173.3-180.3,173.3
		C1603.5,683.4,1527.6,611.3,1527.6,510.1z M1807.8,510.1c0-64.5-43-105.6-100.6-105.6c-56.9,0-99.9,41.1-99.9,105.6
		c0,64.5,43,105.6,99.9,105.6C1764.8,615.7,1807.8,574.6,1807.8,510.1z"/>
	<path class="st4" d="M2133.6,337.4v75.3c-7-1.3-12.7-1.9-18.3-1.9c-60.1,0-98.1,35.4-98.1,104.4V679h-79.1V341.2h75.3v49.3
		C2036.2,355.1,2077.3,337.4,2133.6,337.4z"/>
	<path class="st4" d="M2488.5,535.4h-265.1c9.5,49.3,50.6,81,109.4,81c38,0,67.7-12,91.7-36.7l42.4,48.7c-30.4,36.1-77.8,55-136,55
		c-113.2,0-186.6-72.7-186.6-173.3c0-100.6,74-172.7,174.6-172.7c98.7,0,170.8,69,170.8,174.6
		C2489.8,518.3,2489.1,527.8,2488.5,535.4z M2222.8,482.9h191.7c-6.3-48.7-43.6-82.2-95.5-82.2
		C2267.7,400.6,2230.4,433.5,2222.8,482.9z"/>
</g>
</svg>
